<svg xmlns="http://www.w3.org/2000/svg" viewBox="0 0 1280 720" role="img" aria-labelledby="title desc">
  <title id="title">Auto-translations demo placeholder</title>
  <desc id="desc">Placeholder poster for the auto-translations demo video.</desc>
  <rect width="1280" height="720" fill="#101418"/>
  <rect x="56" y="56" width="1168" height="608" rx="16" fill="#171d23" stroke="#2e3843" stroke-width="2"/>
  <text x="96" y="88" fill="#aeb8c2" font-family="system-ui, -apple-system, sans-serif" font-size="24" font-weight="700">Demo video</text>
  <rect x="116" y="148" width="492" height="424" rx="14" fill="#222930"/>
  <rect x="672" y="148" width="492" height="424" rx="14" fill="#1d232a"/>
  <text x="156" y="220" fill="#ffffff" font-family="system-ui, -apple-system, sans-serif" font-size="38" font-weight="800">Original review</text>
  <text x="712" y="220" fill="#ffffff" font-family="system-ui, -apple-system, sans-serif" font-size="38" font-weight="800">Translation</text>
  <rect x="156" y="284" width="360" height="24" rx="12" fill="#4c5864"/>
  <rect x="156" y="330" width="408" height="24" rx="12" fill="#4c5864"/>
  <rect x="156" y="376" width="318" height="24" rx="12" fill="#4c5864"/>
  <rect x="712" y="284" width="344" height="24" rx="12" fill="#12805c"/>
  <rect x="712" y="330" width="390" height="24" rx="12" fill="#12805c"/>
  <rect x="712" y="376" width="294" height="24" rx="12" fill="#12805c"/>
  <circle cx="640" cy="360" r="58" fill="#0877cf"/>
  <path d="M620 330 L620 390 L670 360 Z" fill="#ffffff"/>
</svg>
