<svg xmlns="http://www.w3.org/2000/svg" viewBox="0 0 1280 720" role="img" aria-labelledby="title desc">
  <title id="title">Review Chat demo placeholder</title>
  <desc id="desc">Placeholder poster for the Review Chat demo video.</desc>
  <rect width="1280" height="720" fill="#101418"/>
  <rect x="56" y="56" width="1168" height="608" rx="16" fill="#171d23" stroke="#2e3843" stroke-width="2"/>
  <text x="96" y="88" fill="#aeb8c2" font-family="system-ui, -apple-system, sans-serif" font-size="24" font-weight="700">Demo video</text>
  <rect x="116" y="148" width="460" height="424" rx="14" fill="#222930"/>
  <rect x="648" y="148" width="516" height="424" rx="14" fill="#1d232a"/>
  <text x="156" y="220" fill="#ffffff" font-family="system-ui, -apple-system, sans-serif" font-size="42" font-weight="800">Review Chat</text>
  <rect x="156" y="276" width="328" height="58" rx="12" fill="#2b333b"/>
  <rect x="156" y="354" width="374" height="58" rx="12" fill="#2b333b"/>
  <rect x="156" y="432" width="292" height="58" rx="12" fill="#2b333b"/>
  <rect x="692" y="222" width="348" height="24" rx="12" fill="#12805c"/>
  <rect x="692" y="282" width="412" height="24" rx="12" fill="#4c5864"/>
  <rect x="692" y="342" width="366" height="24" rx="12" fill="#4c5864"/>
  <circle cx="908" cy="474" r="64" fill="#0877cf"/>
  <path d="M886 442 L886 506 L940 474 Z" fill="#ffffff"/>
</svg>
